<?xml version="1.0" encoding="UTF-8" standalone="no"?>
<!-- Created with Inkscape (http://www.inkscape.org/) -->

<svg
   width="64"
   height="64"
   viewBox="10 10 110 110"
   version="1.1"
   id="svg8"
   sodipodi:docname="button-b.svg"
   inkscape:version="1.1.1 (3bf5ae0d25, 2021-09-20)"
   xmlns:inkscape="http://www.inkscape.org/namespaces/inkscape"
   xmlns:sodipodi="http://sodipodi.sourceforge.net/DTD/sodipodi-0.dtd"
   xmlns="http://www.w3.org/2000/svg"
   xmlns:svg="http://www.w3.org/2000/svg"
   xmlns:rdf="http://www.w3.org/1999/02/22-rdf-syntax-ns#"
   xmlns:cc="http://creativecommons.org/ns#"
   xmlns:dc="http://purl.org/dc/elements/1.1/">
  <g
     inkscape:label="Layer 1"
     inkscape:groupmode="layer"
     id="layer1"
     transform="translate(0,-164.70832)">
    <path
       id="path21106"
       style="fill:#FFFFFF;fill-opacity:1;stroke-width:3.65171;stroke-dashoffset:4.49997"
       d="M 250,61.402344 A 188.59697,188.59697 0 0 0 61.402344,250 188.59697,188.59697 0 0 0 250,438.59766 188.59697,188.59697 0 0 0 438.59766,250 188.59697,188.59697 0 0 0 250,61.402344 Z M 162,162 H 292.66602 C 322.88827,162 338,174.08782 338,198.26562 v 15.4668 c 0,14.93335 -5.77841,25.2447 -17.33398,30.9336 13.33335,5.33334 20,16.08978 20,32.26757 v 24.79883 C 340.66602,325.91023 325.55624,338 295.33398,338 H 162 Z m 53.33398,32 v 36 h 60 c 6.22223,0 9.33204,-2.48901 9.33204,-7.4668 v -21.0664 c 0,-4.97779 -3.10981,-7.4668 -9.33204,-7.4668 z m 0,68 v 44 H 278 c 6.22223,0 9.33398,-2.48901 9.33398,-7.4668 V 269.4668 C 287.33398,264.48901 284.22223,262 278,262 Z"
       transform="matrix(0.26458333,0,0,0.26458333,0,164.70832)" />
  </g>
</svg>
